<svg fill="#000000" xmlns="http://www.w3.org/2000/svg" xmlns:xlink="http://www.w3.org/1999/xlink" version="1.1" x="0px" y="0px" viewBox="0 0 200 200" enable-background="new 0 0 200 200" xml:space="preserve"><g><g><g><path fill="#000000" d="M157.275,199.997H8.793V0h114.963l33.519,33.517V199.997z M15.743,193.047h134.582V36.396L120.876,6.95     H15.743V193.047z"/><polygon fill="#000000" points="153.798,38.432 118.841,38.432 118.841,3.478 125.79,3.478 125.79,31.482 153.798,31.482    "/></g><path fill="#000000" d="M83.033,151.35c-28.315,0-51.351-23.034-51.351-51.35c0-28.315,23.036-51.352,51.351-51.352    c28.314,0,51.351,23.037,51.351,51.352C134.384,128.315,111.348,151.35,83.033,151.35z M83.033,55.599    c-24.482,0-44.401,19.917-44.401,44.401c0,24.481,19.919,44.4,44.401,44.4c24.483,0,44.401-19.919,44.401-44.4    C127.435,75.516,107.517,55.599,83.033,55.599z"/><g><polygon fill="#000000" points="65.604,117.9 47.702,100 65.603,82.098 70.518,87.011 57.531,100 70.518,112.985    "/><polygon fill="#000000" points="100.465,117.899 95.551,112.984 108.536,100 95.551,87.014 100.465,82.101 118.367,100    "/><rect x="79.56" y="73.34" transform="matrix(0.9847 0.1741 -0.1741 0.9847 18.6764 -12.9283)" fill="#000000" width="6.95" height="53.319"/></g><g><rect x="63.729" y="31.482" fill="#000000" width="7.722" height="6.95"/><rect x="79.172" y="31.482" fill="#000000" width="7.722" height="6.95"/><rect x="94.616" y="31.482" fill="#000000" width="7.722" height="6.95"/></g><g><rect x="94.616" y="161.569" fill="#000000" width="7.722" height="6.95"/><rect x="79.172" y="161.569" fill="#000000" width="7.722" height="6.95"/><rect x="63.729" y="161.569" fill="#000000" width="7.722" height="6.95"/></g></g><g><path fill="#000000" d="M191.207,183.032H167.29V18.816l11.957-18.492l11.96,18.492V183.032z M174.239,176.083h10.018V20.868    l-5.01-7.745l-5.008,7.745V176.083z"/><path fill="#000000" d="M179.247,200c-3.194,0-6.196-1.243-8.455-3.499c-2.26-2.266-3.502-5.267-3.502-8.458v-11.96h23.917v11.96    c0,3.192-1.243,6.195-3.502,8.456C185.445,198.757,182.444,200,179.247,200z M174.239,183.032v5.011    c0,1.336,0.522,2.596,1.47,3.546c1.885,1.884,5.191,1.887,7.079-0.002c0.947-0.947,1.469-2.206,1.469-3.544v-5.011H174.239z"/></g></g></svg>